<svg xmlns="http://www.w3.org/2000/svg" viewBox="0 0 512 512">
  <rect width="512" height="512" fill="#1c2140"/>
  <g transform="translate(0 0) scale(1)">
  <g transform="translate(-16 0)">
    <clipPath id="disc"><circle cx="256" cy="256" r="120"/></clipPath>
    <circle cx="256" cy="256" r="120" fill="#f0a93b"/>
    <path fill="#f1e7cc" d="M328 160A120 120 0 1 0 328 352A100 100 0 1 1 328 160Z"/>
    <path fill="none" stroke="#1c2140" stroke-width="10" clip-path="url(#disc)" d="M328 352A100 100 0 1 1 328 160"/>
    <path fill="#f0a93b" d="M311.9 132.0L341.0 108.8L335.4 145.6ZM366.4 176.6L403.2 171.0L380.0 200.1ZM391.3 242.4L426.0 256.0L391.3 269.6ZM380.0 311.9L403.2 341.0L366.4 335.4ZM335.4 366.4L341.0 403.2L311.9 380.0Z"/>
  </g></g>
</svg>
